<svg width="546" height="592" viewBox="0 0 546 592" fill="none" xmlns="http://www.w3.org/2000/svg">
<path fill-rule="evenodd" clip-rule="evenodd" d="M227.589 361.186C226.468 363.045 227.193 366.056 227.489 368.047C227.22 363.163 230.581 357.664 232.391 353.314C234.152 349.081 235.621 344.713 236.666 340.24C236.69 340.143 238.897 330.16 235.652 332.067C226.63 337.314 232.451 353.841 227.589 361.186ZM223.704 285.538C226.442 289.14 240.255 306.09 245.261 300.494C249.245 296.041 241.051 285.368 237.618 282.976C231.901 278.999 225.771 275.749 220.29 271.388C220.904 276.487 220.407 281.232 223.704 285.538ZM369.359 288.412C373.772 287.754 378.198 287.068 382.552 286.089C377.498 286.834 372.502 287.442 367.545 288.708L369.36 288.411L369.359 288.412ZM135.548 369.667C134.623 367.332 139.773 363.38 140.984 362.094C144.307 358.564 147.725 354.639 148.315 349.969C149.399 346.304 140.819 348.209 138.227 347.77C136.409 347.462 131.952 346.427 131.021 344.551C129.028 340.533 135.428 338.363 138.221 337.049C142.313 335.126 144.518 334.633 140.167 332.815C135.49 330.863 125.527 331.103 124.409 324.252C123.457 318.416 133.241 315.993 137.125 315.099C144.442 313.409 150.964 314.469 157.834 317.242C159.436 317.887 169.141 321.315 168.493 318.914C166.424 313.664 159.4 312.708 156.662 307.911C155.107 305.185 155.034 302.652 153.058 299.966C151.108 297.314 147.097 293.43 148.941 289.663C150.112 287.273 152.891 286.878 154.996 287.611C160.117 289.018 163.559 292.264 168.074 294.825C171.379 296.697 175.109 295.996 178.001 298.782C182.368 303.099 186.753 307.957 191.58 311.98C193.093 313.241 200.168 318.665 200.617 314.502C200.87 312.159 193.625 308.141 192.446 307.275C189.63 305.206 186.614 303.487 185.087 300.15C184.211 298.238 184.653 296.184 183.957 294.696C181.899 290.299 175.954 287.005 173.314 282.819C170.945 279.063 165.435 269.563 167.031 265.019C169.216 258.798 175.549 265.361 178.654 267.684C182.092 270.256 185.079 272.854 188.858 274.644C192.193 276.226 194.625 277.967 196.982 280.998C201.338 286.597 204.241 292.873 207.741 298.766C207.724 298.749 207.709 298.731 207.695 298.711C209.793 302.098 212.777 305.648 216.379 307.574C222.416 310.801 220.623 306.989 217.673 302.831C213.227 296.56 207.806 290.983 203.342 284.745C201.752 282.523 200.241 280.092 200.01 277.279C199.856 275.393 201.057 273.88 201.098 272.51C201.244 267.746 186.654 241.277 196.62 239.659C202.001 238.786 205.308 250.791 207.078 253.956C209.905 259.009 211.305 263.428 216.571 266.192C216.079 263.934 217.971 262.343 217.683 260.374C217.34 258.033 214.889 255.987 213.553 254.197C209.88 249.276 206.496 244.038 204.173 238.361C197.087 221.035 215.534 234.133 221.376 238.882C222.496 239.794 223.94 240.937 225.227 241.956C228.605 244.622 229.707 244.118 233.265 245.508C239.317 247.875 242.753 258.697 244.719 264.403C245.328 266.164 255.691 293.894 259.675 286.77C261.685 283.178 255.155 271.269 253.044 267.793C249.798 262.449 241.342 255.104 241.998 248.371C242.204 246.256 243.826 245.367 244.124 243.47C244.823 239.041 240.65 233.294 239.558 229.148C237.335 220.709 241.913 214.655 247.972 224.193C250.369 227.968 252.146 230.188 255.245 233.466C258.78 237.207 258.699 242.354 261.384 246.33C263.603 249.615 263.3 246.361 266.892 248.66C269.875 250.57 270.413 257.272 270.792 260.501C271.319 264.986 270.97 283.596 277.348 283.671C283.161 283.739 281.421 271.744 280.715 268.394C278.95 260.015 273.509 253.878 268.868 247.012C266.606 243.665 263.798 239.707 262.696 235.764C261.731 232.308 262.864 229.692 263.279 226.36C263.762 222.481 264.652 204.651 272.922 210.378C278.479 214.225 276.505 223.984 281.449 228.267C281.98 223.667 279.116 211.692 285.554 209.637C291.77 207.654 294.932 220.735 296.487 225.069C297.44 227.728 299.576 243.341 302.838 245.025C306.244 246.782 307.32 242.266 308.186 239.801C309.669 235.587 321.326 196.889 328.115 201.098C333.381 204.361 323.899 216.291 325.932 219.754C326.678 221.028 328.014 220.004 329.341 220.466C334.202 222.162 335.087 224.63 332.863 229.484C345.819 231.274 331.814 242.396 327.301 246.25C324.227 248.876 310.838 259.864 317.283 264.976C319.45 266.694 325.504 264.932 328.21 265.62C333.431 266.949 334.229 271.837 330.181 275.25C327.398 277.599 323.192 278.743 319.646 279.211C317.61 279.482 311.891 278.708 310.498 280.341C318.143 284.608 311.645 286.711 306.033 288.816C301.836 290.39 290.829 293.986 290.811 299.997C297.721 299.36 304.401 296.86 311.232 295.741C318.712 294.52 325.961 292.932 333.545 290.907C347.926 287.065 363.128 283.679 377.806 281.494C384.985 280.425 392.128 278.894 399.23 277.398C401.791 276.856 414.896 271.701 415.948 276.839C417.369 283.788 397.226 282.506 393.522 284.681C366.98 289.749 340.724 296.349 314.125 300.747C316.495 301.318 321.759 305.331 319.867 308.314C321.94 308.571 325.724 307.907 327.318 309.521C330.843 313.094 326.078 312.566 325.395 314.28C324.23 317.21 330.361 317.858 332.623 318.524C343.164 321.62 353.444 327.101 363.233 332.073C368.603 334.802 380.36 347.619 369.877 351.36C364.645 353.228 356.757 349.085 352.328 346.787C349.533 345.338 342.75 339.665 339.297 340.164C339.101 344.247 344.287 352.346 345.753 355.907C348.857 363.437 350.232 369.235 346.374 376.86C337.207 394.974 329.903 362.175 327.334 363.498C325.527 364.429 328.097 379.72 328.327 381.677C328.835 386.015 329.003 398.414 322.365 399.012C316.797 399.513 314.497 388.468 313.237 384.851C312.182 381.817 310.08 378.776 309.275 375.283C308.613 372.41 309.074 369.356 308.485 366.55C307.873 363.632 305.445 362.051 304.713 358.767C303.887 355.082 303.932 350.76 303.448 346.953C302.639 340.591 301.884 331.82 296.04 327.682C291.387 338.378 298.202 351.58 300.479 362.102C301.617 367.364 303.29 373.756 299.306 378.053C297.705 379.778 298.572 377.431 296.823 379.974C296.431 380.544 296.303 381.555 296.097 382.211C294.628 386.916 293.794 391.762 292.45 396.495C291.617 399.43 289.771 409.338 285.983 410.175C279.114 411.693 278.525 387.289 277.92 382.68C277.465 379.194 277.565 375.383 276.959 371.989C276.403 368.873 274.443 366.78 274.777 363.229C275.209 358.63 277.099 354.104 278.043 349.602C279.313 343.546 279.285 337.865 278.542 331.762C278.234 329.234 277.854 323.315 274.898 322.802C270.147 321.979 271.196 331.53 271.151 334.034C271.018 341.449 272.966 349.612 270.978 357.705C268.924 366.078 273.742 373.845 272.998 382.232C272.729 385.262 272.05 386.656 270.118 388.878C267.973 391.352 266.874 392.476 265.777 396.223C264.783 399.619 260.988 416.596 254.992 411.595C253.046 409.973 254.004 406.324 254.06 404.22C254.181 399.584 254.043 394.932 254.278 390.3C254.426 387.36 255.3 384.026 254.559 381.109C253.856 378.342 252.323 376.913 252.677 373.738C253.151 369.464 256.396 364.531 256.088 360.36C255.796 356.383 254.299 352.492 254.398 348.194C254.479 344.775 257.699 327.032 255.06 326.012C249.696 323.936 249.345 345.851 249.284 347.518C248.897 358.147 250.059 369.481 249.291 380.174C249.032 383.767 247.244 385.619 246.108 388.4C244.598 392.093 244.832 397.021 243.6 400.949C242.618 404.081 240.048 412.268 236.094 408.041C233.235 404.987 234.144 396.645 233.677 392.658C233.152 388.15 232.305 383.742 232.296 379.191C232.293 378.212 232.693 376.293 232.413 375.41C231.63 372.968 228.542 372.457 227.729 369.595C228.414 372.501 228.257 374.875 226.795 377.407C226.415 378.069 224.964 378.919 224.374 379.684C222.592 381.99 221.694 385.413 220.503 388.072C218.827 391.805 207.902 409.155 207.094 396.42C206.749 390.977 207.328 385.426 208.113 380.055C208.729 375.834 210.338 370.779 209.693 366.535C209.024 362.136 208.095 360.853 210.004 356.16C211.966 351.336 215.793 345.155 214.658 339.783C212.343 328.838 202.739 355.073 201.887 357.963C200.167 363.801 197.926 369.888 193.71 374.406C189.011 379.446 183.433 382.625 179.556 388.554C177.829 391.198 172.849 400.264 168.582 397.536C164.38 394.85 169.976 384.726 171.008 381.772C172.074 378.721 173.72 375.509 174.472 372.415C175.152 369.606 174.692 366.884 175.168 364.037C176.515 355.963 183.053 352.286 186.623 345.55C188.507 341.993 188.122 339.541 183.516 341.702C181.028 342.866 179.051 345.929 177.045 347.849C174.029 350.737 170.778 353.415 167.638 356.171C163.398 359.888 139.992 380.998 135.548 369.667Z" fill="#89B99A"/>
<path fill-rule="evenodd" clip-rule="evenodd" d="M414.912 431.174C397.27 400.171 373.607 371.464 350.841 344.119C357.568 345.96 366.444 344.525 372.576 341.474C379.466 338.047 382.954 332.085 385.741 325.196C386.137 324.219 388.726 314.146 390.617 314.688C394.098 315.69 395.102 337.899 395.477 340.613C396.816 350.302 398.886 359.795 401.056 369.33C405.737 389.882 410.826 410.492 414.912 431.174ZM339.568 325.931C334.648 326.276 330.93 319.318 327.758 315.724C333.07 315.519 355.739 309.249 358.448 314.661C362.85 323.465 344.052 325.604 339.568 325.931ZM228.951 158.111C228.93 161.048 228.929 172.38 224.348 168.866C221.248 166.486 219.558 155.827 218.597 152.558C216.636 145.896 213.623 137.689 213.967 130.659C214.62 117.353 223.348 126.431 225.339 133.529C227.536 141.354 228.988 149.954 228.951 158.111ZM263.956 216.401C269.746 212.773 267.422 219.544 265.246 222.773C259.126 231.859 257.772 221.333 263.956 216.401ZM250.917 185.283C249.692 178.682 250.3 169.724 252.185 163.413C253.665 158.456 258.4 153.839 261.304 160.173C263.716 165.431 259.154 179.253 256.722 184.426C254.745 188.633 252.029 192.208 250.917 185.283ZM225.768 187.305C226.851 199.973 215.824 204.61 216.185 190.147C216.408 181.298 223.833 174.762 225.768 187.305ZM249.086 263.649C249.426 268.906 238.379 287.297 237.583 277.149C237.356 274.255 248.499 258.912 249.086 263.649ZM216.691 245.92C212.911 248.371 202.529 256.558 198.6 254.902C192.321 252.253 199.49 244.83 202.28 242.921C205.328 240.834 213.681 235.724 217.882 236.365C225.587 237.545 220.587 243.15 216.691 245.92ZM159.938 170.173C150.565 174.168 147.269 163.008 145.246 156.344C143.923 151.984 139.248 142.868 144.158 139.757C152.985 134.157 162.836 162.948 159.938 170.173ZM191.004 171.486C189.573 167.014 188.457 162.446 187.056 157.966C186.221 155.302 181.855 145.92 182.381 143.69C184.045 136.615 189.76 140.148 193.083 145.335C196.493 150.66 200.058 161.768 199.699 167.878C199.366 173.545 194.075 180.131 191.004 171.486ZM173.715 124.457C171.255 116.677 176.574 110.137 182.672 118.805C189.572 128.607 179.088 138.97 173.715 124.457ZM187.206 261.969C187.563 269.084 163.443 279.809 157.991 276.531C150.813 272.217 165.554 266.849 169.651 264.719C173.113 262.923 186.196 253.813 187.206 261.969ZM144.454 251.362C138.333 253.085 132.058 255.479 125.762 256.343C117.114 257.527 117.188 252.674 123.658 247.575C129.313 243.119 139.888 242.042 146.636 239.344C152.027 237.188 167.664 224.839 171.566 228.663C180.358 237.279 150.233 249.678 144.454 251.362ZM146.087 279.091C146.331 288.763 120.719 292.003 114.992 292.568C118.834 289.834 144.336 265.754 146.087 279.091ZM97.6172 230.323C80.2588 229.745 97.6982 217.108 103.549 214.774C107.795 213.077 117.788 209.308 122.108 212.861C133.444 222.185 102.082 230.493 97.6172 230.323ZM99.588 194.975C99.9856 188.979 128.875 179.944 130.508 185.431C131.793 189.752 100.974 207.557 99.588 194.975ZM141.147 202.209C152.608 194.357 168.124 201.735 150.941 210.84C147.569 212.624 138.743 217.443 135.003 214.696C129.72 210.817 138.112 204.167 141.147 202.209ZM457.312 228.607C454.471 223.577 450.38 216.55 445.674 221.294C443.845 223.134 441.961 230.82 440.724 233.706C436.388 243.807 431.781 255.085 422.642 261.851C417.172 265.899 398.11 272.436 402.893 260.08C406.97 249.538 420.48 240.204 428.627 232.557C432.403 229.011 441.367 221.733 443.333 216.589C444.831 212.667 441.226 203.438 434.756 205.522C431.819 206.469 431.439 215.053 430.365 217.498C428.666 221.357 425.667 224.382 423.016 227.59C418.814 232.678 414.371 240.136 407.779 242.532C399.853 245.418 397.404 240.777 401.479 233.659C405.465 226.703 414.471 222.225 419.98 216.515C422.721 213.673 431.354 205.361 429.258 201.112C424.693 191.86 418.318 205.394 416.049 208.145C414.271 210.297 403.482 224.187 400.115 221.533C396.068 218.346 405.131 205.505 406.8 202.762C410.32 196.973 411.859 197.298 407.402 194.206C404.856 192.436 399.55 190.919 396.736 191.319C389.829 192.299 382.763 198.674 375.642 200.364C372.695 201.065 362.655 200.907 361.439 205.42C359.565 212.365 389.768 229.01 373.855 232.799C361.555 235.722 349.992 216.675 339.882 224.511C323.904 236.898 349.276 244.435 359.023 247.003C363.393 248.156 377.784 248.656 375.682 256.384C373.971 262.667 362.039 261.281 357.439 260.509C348.724 259.051 340.835 254.831 332.686 251.696C330.488 250.853 321.65 246.058 318.999 247.09C315.203 248.575 310.603 263.399 312.814 266.894C315.54 271.197 330.519 269.696 335.583 269.806C344.141 269.988 354.635 269.679 361.927 275.009C369.979 280.893 360.026 281.811 354.526 281.573C342.658 281.057 330.544 276.86 318.915 274.585C314.859 273.789 308.82 271.628 304.789 272.182C298.686 273.025 299.972 273.448 302.481 278.432C308.077 289.555 313.759 290.807 326.139 291.67C331.786 292.061 356.493 288.811 358.436 296.346C352.366 301.125 337.641 298.511 330.477 298.41C325.235 298.334 316.738 299.542 312.181 297.008C305.976 293.55 298.128 280.657 293.579 275.482C285.51 266.303 277.567 257.17 268.735 248.688C278.372 250.055 287.397 253.109 297.16 250.697C307.832 248.058 318.061 240.928 319.637 229.457C320.213 225.259 319.514 220.951 319.214 216.765C319.116 215.428 319.181 214.054 319.021 212.72C318.322 206.922 318.805 205.033 314.821 209.23C310.288 214.005 307.141 224.876 299.347 226.897C290.718 229.137 295.346 222.671 298.854 218.895C307.517 209.57 316.993 201.457 318.427 187.65C319.209 180.12 318.771 171.857 317.41 164.347C316.101 157.129 314.798 157.349 312.358 163.262C307.063 176.087 298.808 186.653 287.834 195.229C285.731 196.874 281.014 200.899 277.839 198.621C274.965 196.561 277.053 192.664 277.835 189.718C279.557 183.211 282.039 177.179 284.484 170.924C287.704 162.684 293.307 151.568 293.535 142.694C293.685 136.931 289.016 134.456 284.892 130.845C280.07 126.62 275.744 122.119 272.004 116.899C269.397 113.263 266.588 107.807 262.663 105.418C256.57 101.707 257.935 106.337 258.395 110.967C258.763 114.666 264.112 151.197 255.445 149.32C246.844 147.459 250.465 113.078 249.272 105.532C247.689 95.5336 233.805 96.8914 225.404 95.0656C220.974 94.1003 216.914 93.5955 212.712 91.9614C211.121 91.3428 209.317 88.6451 207.53 89.4581C203.47 91.3014 219.841 106.337 215.587 111.666C208.405 120.663 201.159 96.9034 199.103 92.5697C197.375 88.9246 195.311 84.6556 192.889 81.4873C189.145 76.5945 188.639 77.7757 183.129 79.4157C177.618 81.0558 164.458 80.9149 160.296 84.5581C156.273 88.0822 161.407 90.6669 164.195 93.8711C166.836 96.9034 175.394 107.193 168.181 109.325C165.576 110.095 156.123 102.403 153.675 100.821C148.477 97.4606 149.598 98.2262 145.234 99.3279C140.163 100.605 134.455 102.245 129.577 103.973C123.459 106.14 122.002 107.169 126.587 111.552C131.964 116.687 140.015 119.78 142.663 127.127C143.951 130.3 143.103 133.849 139.096 133.912C134.821 133.981 132.875 128.146 131.23 125.018C129.146 121.06 125.234 111.75 120.16 110.919C116.989 110.399 113.077 114.228 110.395 115.618C108.807 116.44 101.656 118.575 101.08 120.781C100.448 123.203 108.696 128.455 110.933 131.038C116.639 137.628 122.703 145.77 124.861 153.701C126.527 166.649 111.536 150.916 109.172 146.989C106.55 142.635 98.1359 120.124 90.6035 122.403C88.5524 123.025 87.2853 128.023 85.6069 129.659C83.5506 131.662 80.9108 132.468 78.4424 133.712C74.7832 135.558 71.121 137.402 67.6142 139.488C66.5304 140.132 63.584 142.006 62.9969 142.43C62.5548 142.752 61.5767 142.54 61.0396 142.944C57.371 145.706 55.6587 151.294 52.3126 154.653C50.8112 156.161 44.1363 160.276 44.6273 162.412C45.0744 164.358 76.8512 165.884 81.6117 166.412C85.2318 166.812 100.433 166.178 102.29 169.715C104.104 173.175 101.032 174.393 98.0426 175.539C90.6235 178.382 81.2748 179.055 73.467 180.452C67.9514 181.438 45.3627 182.843 42.4364 188.325C39.4155 193.985 43.0889 197.86 47.3042 198.636C51.9185 199.49 58.5827 197.542 63.0925 196.891C66.7657 196.361 90.2129 190.551 91.4184 195.957C92.7285 201.839 64.6976 206.774 61.9225 207.52C56.6192 208.947 47.6701 209.202 42.9903 211.927C38.7964 214.374 40.3627 214.658 41.5281 218.675C45.5528 232.557 46.9825 229.843 59.2565 226.724C63.9553 225.529 69.9903 223.394 74.4736 225.97C79.8304 229.042 79.5395 232.891 74.7487 235.542C71.4569 237.366 64.5859 237.796 60.8996 238.334C56.5908 238.965 52.2246 239.183 47.8746 239.231C46.5961 239.246 41.0014 238.317 39.7831 239.14C34.9967 242.37 46.5739 259.194 51.5714 259.85C53.9972 260.169 57.9388 258.514 60.3467 258.048C68.7616 256.409 77.3201 255.541 85.7666 253.983C90.5232 253.107 112.792 246.595 108.802 258.13C106.597 264.501 90.488 267.714 85.1449 269.534C80.0039 271.286 74.8493 272.848 69.5998 274.24C64.6954 275.54 61.8388 275.007 65.1052 280.434C68.4305 285.957 88.2342 302.807 94.4519 302.273C99.5534 301.832 97.6576 299.473 103.382 302.877C105.483 304.13 107.614 306.191 109.436 307.812C116.435 314.027 123.63 322.994 133.401 324.732C154.288 328.451 182.811 300.505 196.296 287.525C198.976 284.947 209.216 272.298 214.2 275.125C219.438 278.093 210.351 289.904 208.546 292.17C198.488 304.811 185.954 316.943 171.061 323.519C167.094 325.269 155.98 326.949 152.221 330.041C148.493 333.105 152.307 334.092 156.264 336.699C164.704 342.253 175.986 350.446 186.359 347.042C200.016 342.559 207.345 328.234 214.982 316.99C219.219 310.756 239.07 281.3 239.333 304.397C239.46 315.895 232.174 329.057 224.337 336.964C222.872 338.44 213.398 343.161 213.597 344.284C213.9 345.988 219.579 346.719 220.616 346.942C230.668 349.104 260.86 352.05 265.093 339.107C267.998 330.227 264.459 316.038 263.211 307.108C262.821 304.334 260.879 299.877 264.866 298.994C269.972 297.863 274.349 315.703 274.732 318.53C275.519 324.342 274.643 330.399 272.44 336.395C271.472 339.029 268.818 341.382 272.28 341.794C273.535 341.942 280.557 335.258 281.658 334.142C287.258 328.442 287.638 322.022 287.18 314.465C285.936 294.072 276.45 274.19 265.416 257.23C278.609 270.914 291.197 285.082 303.378 299.678C306.422 303.325 308.562 307.786 311.565 311.306C315.898 316.38 321.232 320.507 325.74 325.925C324.413 325.791 312.92 322.695 312.587 325.826C312.285 328.675 322.032 333.088 324.029 334.143C333.017 338.903 336.555 339.319 343.621 347.939C361.205 369.395 377.271 391.639 393.008 414.461C400.699 425.615 408.799 436.605 415.571 448.353C418.969 454.245 421.695 460.535 424.279 466.818C426.056 471.139 428.288 484.183 433.826 485.568C440.264 487.18 438.687 480.094 437.379 476.754C434.43 469.227 432.286 461.898 430.187 454.041C426.774 441.262 424.204 428.275 420.474 415.569C415.819 399.713 411.985 383.727 408.146 367.662C405.654 357.235 403.512 346.633 401.909 336.028C400.808 328.745 401.084 320.945 399.13 313.808C406.739 320.665 405.258 333.054 417.963 333.94C427.782 334.626 434.877 326.701 440.494 319.708C445.074 314.005 451.658 305.386 452.547 297.893C453.607 288.952 446.114 295.347 440.53 297.284C436.926 298.536 426.99 304.252 424.025 300.839C419.878 296.063 434.678 289.856 437.539 288.037C443.833 284.041 450.812 279.185 455.606 273.328C457.499 271.013 465.342 245.876 456.64 249.291C455.536 249.724 453.998 253.238 453.108 254.474C448.977 260.204 444.285 265.374 439.221 270.286C433.701 275.637 421.651 288.23 412.448 285.503C416.178 274.209 431.796 268.321 440.238 260.916C445.664 256.16 450.361 250.905 453.587 244.385C455.19 241.141 459.267 232.055 457.312 228.607Z" fill="#02362C"/>
</svg>
