<svg width="371" height="370" viewBox="0 0 371 370" fill="none" xmlns="http://www.w3.org/2000/svg">
<path fill-rule="evenodd" clip-rule="evenodd" d="M287.612 128.497C275.133 124.523 262.123 123.589 249.191 122.194C253.312 121.285 257.773 120.07 261.97 119.604C265.832 119.18 268.13 120.771 271.765 122.037C278.252 124.302 285.5 127.054 291.14 129.685C289.971 129.27 288.794 128.874 287.612 128.497ZM269.839 133.462C256.148 130.904 242.132 130.349 228.46 127.674C231.85 126.637 233.771 125.733 237.373 126.076C242.728 126.584 248.147 127.681 253.379 128.846C260.973 130.537 268.635 132.361 276.033 134.76C273.978 134.283 271.913 133.85 269.839 133.462ZM270.498 136.134C269.561 136.513 266.277 135.229 265.216 135C266.238 135.195 269.899 136.376 270.498 136.134ZM243.239 135.853C232.525 135.182 221.683 134.846 210.951 134.902C212.878 134.182 214.718 133.28 216.595 132.438C221.728 130.137 222.62 130.503 227.744 132.015C234.353 133.967 241.124 135.078 247.9 136.208C246.348 136.064 244.795 135.945 243.239 135.853ZM230.736 142.031C215.946 143.153 201.357 144.945 186.593 146.598C189.745 145.325 192.775 143.705 195.787 142.14C200.435 139.728 204.003 140.068 209.185 140.066C214.688 140.063 220.093 140.709 225.564 141.331C226.914 141.486 232.2 141.919 230.736 142.031ZM207.948 130.793C215.844 123.125 224.903 115.98 234.184 110.007C240.074 106.216 246.48 101.935 253.402 105.222C241.954 105.698 226.997 116.081 220.222 124.98C219.897 125.401 219.4 125.693 219.061 126.107C217.789 127.651 219.174 127.819 218.309 128.769C218.208 128.881 213.583 130.769 214.197 130.517C211.059 131.811 207.848 132.898 204.706 134.174C205.769 133.029 206.847 131.901 207.948 130.793ZM251.996 112.421C244.224 118.921 235.792 122.381 226.43 125.642C234.98 120.144 243.552 115.647 252.949 111.709C252.631 111.946 252.313 112.182 251.996 112.421ZM261.668 114.651C263.288 114.132 264.011 114.266 264.371 116.19C260.185 116.031 258.197 116.605 254.241 117.565C256.646 116.423 259.128 115.449 261.668 114.651ZM266.805 115.7C266.514 115.172 266.389 114.164 266.186 113.649C269.294 113.598 271.933 114.255 274.574 115.885C273.7 115.893 267.021 116.665 266.805 115.7ZM140.774 187.851C163.495 185.045 185.286 184.312 208.105 186.536C190.914 188.043 173.65 191.498 156.733 194.852C143.151 197.545 129.378 198.999 115.757 201.433C118.281 198.806 120.641 196.023 123.212 193.434C127.678 188.939 134.369 188.652 140.774 187.851ZM218.889 194.542C222.991 194.122 227.083 193.613 231.163 193.015C235.598 192.36 242.672 189.436 247.135 190.317C222.77 197.55 196.442 200.884 171.395 204.96C160.984 206.655 150.385 209.132 140.3 212.275C125.739 216.81 109.315 216.788 95.4176 223.159C99.6677 218.705 104.323 212.334 109.165 208.712C112.684 206.077 118.521 205.858 122.708 205.305C129.602 204.396 136.529 203.689 143.44 202.945C168.6 200.234 193.719 197.174 218.889 194.542ZM91.4783 218.667C89.4341 220.917 87.4446 223.216 85.5113 225.561C89.0205 209.101 88.8629 191.743 90.8397 175.034C91.9576 165.586 93.0066 156.032 94.5099 146.646C95.8391 138.358 96.1932 127.066 100.637 119.906C103.953 122.986 106.404 126.255 105.745 130.732C104.898 136.49 102.418 142.023 101.264 147.735C99.9685 154.154 99.091 160.687 98.2898 167.185C97.0574 177.179 96.7697 187.345 97.2978 197.393C97.4405 200.218 97.622 203.04 97.8422 205.86C97.9388 207.09 98.576 209.187 98.3045 210.337C97.6412 213.165 93.6166 216.299 91.4783 218.667ZM115.981 150.136C117.929 140.887 119.116 130.141 123.167 121.471C125.416 116.653 127.579 114.938 130.938 120.142C133.336 123.856 129.569 132.008 128.382 136.676C125.015 149.921 123.237 163.511 121.009 176.979C120.427 180.508 120.255 183.998 119.879 187.531C119.566 190.46 119.647 190.286 117.96 192.491C116.875 193.916 115.164 195.126 113.856 196.376C110.427 199.653 106.95 202.887 103.557 206.202C108.72 187.73 112.041 168.882 115.981 150.136ZM370.002 192.144C366.873 187.983 362.905 184.231 358.845 181.015C353.222 176.556 346.336 173.948 340.72 169.66C335.997 166.05 332.096 161.246 327.269 157.59C319.601 151.788 311.71 146.962 302.731 143.476C314.166 147.378 325.133 152.075 334.294 160.172C335.068 160.858 341.777 169.449 343.166 168.628C344.116 168.074 340.09 161.856 339.251 160.407C333.061 149.76 320.358 142.947 310.32 136.108C298.983 128.386 286.603 124.053 273.687 119.782C285.422 120.43 295.308 123.444 305.139 130.047C309.974 133.292 314.448 137.084 319.432 140.098C323.85 142.77 328.094 145.234 331.907 148.82C336.178 152.839 339.609 157.219 342.443 162.353C343.508 164.285 348.71 175.978 348.85 168.55C348.919 164.89 344.297 159.675 342.426 157.03C339.271 152.575 335.612 148.562 331.782 144.682C325.267 138.088 319.049 131.244 311.316 126.041C306.918 123.08 302.312 120.735 297.28 119.044C293.394 117.737 289.405 116.798 285.327 116.336C281.455 115.898 281.082 115.944 278.001 113.944C275.353 112.223 273.093 110.382 270.13 109.155C267.111 107.903 264.541 107.724 262.295 106.016C259.645 103.997 258.617 101.629 255.198 100.365C252.054 99.2015 248.837 99.4576 245.557 99.7196C234.71 100.584 223.697 103.334 214.722 109.75C206.791 115.422 201.399 124.473 197.565 133.298C195.448 138.167 196.885 137.984 191.2 140.783C185.223 143.727 179.281 146.619 173.466 149.903C183.053 137.986 191.388 124.792 201.899 113.624C207.52 107.659 213.032 101.596 218.651 95.634C220.31 93.8772 233.412 81.2225 226.053 81.6715C224.351 81.7743 221.792 84.0486 220.228 84.7953C217.107 86.2933 214.008 87.6208 211.123 89.5784C206.122 92.972 202.04 97.194 197.951 101.585C187.358 112.96 177.81 125.126 172.922 140.061C171.764 143.595 171.341 147.579 169.527 150.822C168.25 153.11 166.75 153.9 164.156 155.59C159.707 158.483 155.383 161.458 151.17 164.693C161.943 148.738 168.892 130.883 177.38 113.704C188.298 91.6156 193.293 66.8262 202.476 44.0043C204.257 39.5776 206.427 34.7067 209.416 30.9389C210.325 29.793 213.198 28.0752 213.449 26.6304C214.112 22.819 211.53 23.8423 209.635 24.9384C204.99 27.6235 200.48 33.6799 197.306 37.7623C192.686 43.7003 188.008 50.1418 184.006 56.5395C170.221 78.5744 161.081 103.58 153.49 128.329C149.918 139.963 146.234 151.789 144.476 163.854C143.629 169.679 144.592 169.835 139.725 173.822C134.642 177.988 129.784 182.408 124.741 186.615C129.337 177.178 132.076 165.475 135.392 155.463C138.865 144.975 142.814 134.645 146.343 124.173C152.083 107.132 156.378 89.6845 160.511 72.2007C162.706 62.9048 164.763 53.6018 166.644 44.2405C169.062 32.2107 171.521 18.32 176.913 7.22306C177.717 5.57266 180.985 -2.09561 176.257 0.545551C174.091 1.75299 171.524 9.65472 170.418 11.7851C164.154 23.8843 158.877 36.1694 154.163 48.9457C145.806 71.6 139.941 94.8151 133.32 117.981C130.01 113.462 123.137 108.487 117.198 110.41C111.864 112.139 109.24 119.732 107.562 124.489C107.375 121.198 103.338 115.06 100.191 114.85C98.4022 114.73 95.32 116.425 93.8243 117.132C90.1266 118.88 85.9264 121.092 83.6202 124.533C78.8938 131.591 79.7904 142.67 78.9506 150.839C76.4498 175.203 76.8979 198.727 79.652 222.991C80.2812 228.543 81.0417 231.119 77.8828 235.495C74.2747 240.495 70.7962 245.411 67.2436 250.105C68.3851 247.931 67.3535 241.286 67.3403 238.968C67.3037 232.758 67.3673 226.601 67.6896 220.396C68.3511 207.616 67.6653 194.408 67.0214 181.62C65.6957 155.272 65.8163 129.26 66.7046 102.919C66.8906 97.3682 66.7657 91.8518 66.7317 86.3041C66.7174 84.0136 67.4753 78.4028 63.8374 79.7442C62.781 80.1333 62.0037 84.2298 61.6969 85.2688C58.8631 94.8462 57.9735 105.207 56.6756 115.043C55.4964 123.989 54.419 132.95 53.6716 141.94C52.2356 159.211 52.7098 175.982 52.7973 193.282C52.8707 207.533 54.4158 223.026 57.0501 236.173C58.2855 242.339 60.4326 249.001 61.0581 255.215C61.4375 258.957 59.2476 260.344 56.7329 263.742C54.1882 267.178 51.6747 270.641 49.2461 274.16C49.4802 268.768 47.9433 263.193 47.5826 257.797C47.2804 253.289 46.9939 248.804 46.588 244.301C46.2653 240.755 45.9612 237.205 45.647 233.656C44.0275 215.387 42.446 197.159 39.4568 179.058C34.8614 151.262 29.8487 122.696 30.0345 94.4189C30.0714 89.0222 30.2457 83.6292 30.3082 78.2311C30.3541 74.1624 29.9801 70.1261 29.9563 66.0632C29.9438 63.9911 30.888 59.9843 30.1969 57.9197C28.1974 51.9457 26.4652 58.621 26.4096 61.3645C26.3814 62.81 26.2948 64.2513 26.2727 65.6961C26.1391 74.7752 25.3576 83.73 24.9092 92.7988C24.2661 105.875 24.8406 118.886 25.2749 131.956C25.7492 146.193 25.3928 160.528 26.9232 174.713C28.8971 192.996 32.8499 211.174 35.3308 229.409C36.4103 237.35 37.9161 245.204 38.7332 253.182C39.4951 260.639 42.1415 267.969 43.7535 274.857L43.7445 274.329C44.3691 277.257 45.3494 278.72 44.4596 281.407C43.8323 283.294 42.1114 285.278 41.0807 287.012C38.8825 290.7 36.7725 294.431 34.662 298.169C36.5325 288.681 33.9971 276.71 31.9899 267.39C29.7714 257.078 27.0678 246.516 23.9029 236.459C21.4418 228.638 19.4052 220.95 18.6619 212.809C17.6717 201.967 14.7232 191.54 13.1379 180.799C11.6423 170.657 9.12342 160.615 6.97677 150.576C6.49317 148.316 4.33475 137.506 0.823187 142.382C-0.0426188 143.585 1.01858 146.78 1.15462 148.024C1.48881 151.104 1.69707 154.135 1.83529 157.227C2.73143 176.858 6.84257 196.786 10.065 216.128C12.1241 228.486 14.3046 240.889 17.3138 253.052C19.6573 262.522 20.9229 272.361 23.5223 281.698C24.7691 286.177 26.0355 290.755 28.0279 294.96C29.7612 298.62 31.5086 299.642 30.8971 303.586C30.0216 309.224 25.2213 315.077 23.0551 320.536C21.2834 324.999 19.4768 329.47 17.7887 333.964C15.4306 340.26 13.2207 346.666 11.1518 353.061C9.951 356.765 7.62174 361.546 7.40364 365.313C7.07132 371.035 10.3101 369.398 12.0109 365.571C13.155 362.995 14.0684 360.224 15.1445 357.605C23.0404 338.414 30.27 317.838 42.0597 300.619C46.9776 293.428 60.5719 291.695 68.5481 289.188C87.7359 283.149 108.493 282.353 128.402 280.146C144.455 278.37 160.249 276.737 175.965 272.788C178.261 272.213 220.154 259.879 219.103 257.728C219.69 258.935 173.271 269.265 169.554 269.57C157.896 270.52 146.276 270.775 134.593 271.269C105.371 272.506 76.628 273.208 50.0754 287.015C53.4261 281.745 57.4342 271.797 63.3158 269.756C74.6515 265.818 86.5985 263.275 98.0188 259.435C109.891 255.449 122.082 252.779 134.024 249.085C145.952 245.395 157.854 241.572 169.963 238.469C182.135 235.35 194.709 232.1 207.357 232.501C212.225 232.656 217.107 233.087 221.954 233.545C223.785 233.718 238.356 236.412 230.477 233.066C225.375 230.897 218.695 230.73 213.229 229.934C206.961 229.024 200.953 228.216 194.618 228.266C180.825 228.372 166.968 231.606 153.635 234.807C137.677 238.634 121.066 242.432 105.833 248.591C91.8727 254.237 77.8407 259.656 63.8796 265.231C66.4184 261.345 69.1184 257.576 71.7598 253.759C73.0425 251.902 74.396 248.889 76.2174 247.621C78.9972 245.684 84.8463 245.181 88.0749 244.106C101.065 239.787 114.115 234.714 127.426 231.501C148.829 226.333 170.74 223.128 192.276 218.529C204.845 215.848 218.154 213.482 231.005 213.71C235.839 213.798 240.679 213.622 245.426 214.643C247.105 215.003 249.219 215.933 250.948 216.129C256.123 216.709 252.284 214.22 249.145 213.132C224.266 204.519 196.843 211.405 171.765 214.91C155.179 217.225 138.806 219.587 122.97 225.292C108.379 230.547 94.4296 237.556 79.5961 242.171C83.4839 236.646 86.95 230.925 93.1617 227.885C100.036 224.524 107.281 223.062 114.783 221.788C130.38 219.13 145.873 215.728 161.52 213.413C175.895 211.29 190.243 209.406 204.492 206.508C218.365 203.682 232.157 202.031 245.399 196.691C249.591 195 254.674 192.069 259.15 191.813C264.952 191.482 271.977 193.22 277.666 194.082C291.522 196.177 305.905 198.337 318.714 204.202C331.282 209.958 339.816 219.004 349.437 228.461C352.468 231.445 355.45 234.479 358.473 237.471C359.146 238.138 363.163 243.146 363.991 243.21C369.115 243.594 359.449 233.438 357.781 231.357C346.254 216.976 333.78 204.982 316.822 197.147C302.37 190.469 287.261 186.126 271.501 183.902C271.541 181.053 283.152 180.911 283.47 177.96C283.892 174.025 275.767 177.963 274.157 178.447C271.099 179.365 268.125 180.513 265.052 181.382C257.996 183.376 250.19 180.92 243.023 180C234.381 178.896 225.625 178.172 216.934 177.649C188.164 175.914 160.56 176.868 132.616 184.577C137.63 180.185 142.861 176.011 148.161 171.969C150.225 170.396 151.798 168.955 154.136 168.217C158.084 166.97 162.772 167.527 166.888 167.124C183.16 165.537 199.358 163.753 215.72 163.251C242.646 162.425 270.721 167.258 296.256 175.818C308.714 179.996 320.936 184.059 331.753 191.749C334.258 193.527 336.485 195.568 338.761 197.623C339.702 198.472 345.446 204.649 345.738 204.616C348.23 204.35 336.676 191.565 334.997 189.932C312.436 168.003 283.161 163.018 253.268 158.615C222.008 154.009 190.631 156.455 159.835 163.404C165.985 159.567 172.029 152.991 178.932 150.76C184.176 149.064 190.832 149.386 196.139 148.842C211.526 147.26 227.655 149.947 243.077 151.039C260.498 152.271 277.421 154.506 294.264 159.147C302.882 161.522 311.274 164.035 319.683 167.119C326.347 169.563 331.784 171.068 337.175 175.534C339.35 177.352 345.821 182.18 349.322 185.462C350.75 186.803 352.229 189.635 353.843 190.309C359.855 192.817 351.876 183.021 350.566 181.321C355.345 184.176 359.806 187.482 364.049 191.002C364.888 191.7 365.691 192.233 366.541 192.87C367.538 193.621 368.061 195.812 369.769 195.082C371.16 194.484 370.666 193.051 370.002 192.144Z" fill="#012A32"/>
</svg>
